<svg xmlns="http://www.w3.org/2000/svg" width="21.594" height="16.82" viewBox="0 0 21.594 16.82">
  <defs>
    <style>
      .cls-1 {
        fill: #6d6c6c;
        fill-rule: evenodd;
      }
    </style>
  </defs>
  <path id="Eyeball" class="cls-1" d="M790.855,1228.54c2.847,0,5.735,2.17,8.044,6-2.309,3.83-5.2,6-8.044,6s-5.735-2.17-8.044-6c2.309-3.83,5.2-6,8.044-6m0-2.4c-3.915,0-7.83,2.8-10.8,8.4h0c2.97,5.6,6.885,8.4,10.8,8.4s7.83-2.8,10.8-8.4h0c-2.97-5.6-6.885-8.4-10.8-8.4h0Zm2.4,8.4a2.4,2.4,0,1,1-2.4-2.4A2.4,2.4,0,0,1,793.255,1234.54Z" transform="translate(-780.062 -1226.12)"/>
</svg>
