<svg xmlns="http://www.w3.org/2000/svg" xmlns:xlink="http://www.w3.org/1999/xlink" width="16.782" height="19.18" viewBox="0 0 16.782 19.18">
  <defs>
    <style>
      .cls-1 {
        fill: #595959;
        fill-rule: evenodd;
        filter: url(#filter);
      }
    </style>
    <filter id="filter" x="783.062" y="1312.94" width="16.782" height="19.18" filterUnits="userSpaceOnUse">
      <feFlood result="flood" flood-color="#6d6c6c"/>
      <feComposite result="composite" operator="in" in2="SourceGraphic"/>
      <feBlend result="blend" in2="SourceGraphic"/>
    </filter>
  </defs>
  <path id="Location" class="cls-1" d="M791.455,1312.94a8.376,8.376,0,0,0-8.4,8.35c0,6.63,6.023,9.97,7.811,10.75a1.351,1.351,0,0,0,.484.1c0.035,0,.07-0.01.105-0.01s0.07,0.01.1,0.01a1.361,1.361,0,0,0,.485-0.1c1.787-.78,7.81-4.12,7.81-10.75A8.376,8.376,0,0,0,791.455,1312.94Zm0.106,16.67c-0.032-.01-0.072-0.04-0.106-0.05-0.034.01-.074,0.04-0.106,0.05-1.539-.78-5.894-3.41-5.894-8.32a6,6,0,0,1,12,0C797.455,1326.2,793.1,1328.83,791.561,1329.61Zm-0.106-10.67a2.4,2.4,0,1,0,2.4,2.4,2.4,2.4,0,0,0-2.4-2.4h0Z" transform="translate(-783.062 -1312.94)"/>
</svg>
