<svg xmlns="http://www.w3.org/2000/svg" xmlns:xlink="http://www.w3.org/1999/xlink" width="21.625" height="19.22" viewBox="0 0 21.625 19.22">
  <defs>
    <style>
      .cls-1 {
        fill: #595959;
        fill-rule: evenodd;
        filter: url(#filter);
      }
    </style>
    <filter id="filter" x="780.031" y="1269.94" width="21.625" height="19.22" filterUnits="userSpaceOnUse">
      <feFlood result="flood" flood-color="#6d6c6c"/>
      <feComposite result="composite" operator="in" in2="SourceGraphic"/>
      <feBlend result="blend" in2="SourceGraphic"/>
    </filter>
  </defs>
  <path id="Painting" class="cls-1" d="M789.648,1277.13a2.4,2.4,0,1,1-2.4-2.4A2.4,2.4,0,0,1,789.648,1277.13Zm-4.453,11.65h0a1.188,1.188,0,0,1,0-1.68l9.623-9.62a1.181,1.181,0,0,1,1.683,0h0a1.188,1.188,0,0,1,0,1.68l-9.623,9.62A1.181,1.181,0,0,1,785.2,1288.78Zm14.435-4.8-4.835-4.83a1.179,1.179,0,0,1,0-1.67h0a1.169,1.169,0,0,1,1.673,0l4.835,4.83a1.179,1.179,0,0,1,0,1.67h0A1.169,1.169,0,0,1,799.63,1283.98Zm0.82-14.05h-19.2a1.2,1.2,0,0,0-1.2,1.2v16.8a1.2,1.2,0,0,0,1.2,1.2h19.2a1.2,1.2,0,0,0,1.2-1.2v-16.8A1.2,1.2,0,0,0,800.45,1269.93Zm-1.2,16.2a0.6,0.6,0,0,1-.6.6h-15.6a0.6,0.6,0,0,1-.6-0.6v-13.2a0.6,0.6,0,0,1,.6-0.6h15.6a0.6,0.6,0,0,1,.6.6v13.2Z" transform="translate(-780.031 -1269.94)"/>
</svg>
