<svg xmlns="http://www.w3.org/2000/svg" width="20" height="14.06" viewBox="0 0 20 14.06">
  <defs>
    <style>
      .cls-1 {
        fill: #47ae77;
        fill-rule: evenodd;
      }
    </style>
  </defs>
  <path id="Envelope_copy" data-name="Envelope copy" class="cls-1" d="M912.726,2854.92H895.264a1.257,1.257,0,0,0-1.26,1.26v11.54a1.264,1.264,0,0,0,1.26,1.26h17.462a1.264,1.264,0,0,0,1.26-1.26v-11.54A1.257,1.257,0,0,0,912.726,2854.92Zm-1.647,2.04L904,2862.19l-7.079-5.23h14.158Zm0.918,9.45a0.629,0.629,0,0,1-.63.63H896.632a0.629,0.629,0,0,1-.63-0.63v-6.76l7.364,5.1a1.207,1.207,0,0,0,1.268,0l7.363-5.1v6.76Z" transform="translate(-894 -2854.91)"/>
</svg>
