<svg xmlns="http://www.w3.org/2000/svg" width="32" height="32" viewBox="0 0 32 32">
  <path id="Cogwheel" d="M764.329,2000.721l-2.65-.442a11.913,11.913,0,0,0-1.524-3.653l1.476-2.066a1.981,1.981,0,0,0-.211-2.552l-.428-.428a1.981,1.981,0,0,0-2.552-.211l-2.067,1.476a11.915,11.915,0,0,0-3.653-1.524l-.442-2.65a2,2,0,0,0-1.973-1.671h-.612a2,2,0,0,0-1.973,1.671l-.442,2.65a11.917,11.917,0,0,0-3.653,1.524l-2.067-1.476a1.981,1.981,0,0,0-2.552.211l-.428.428a1.981,1.981,0,0,0-.211,2.552l1.476,2.066a11.917,11.917,0,0,0-1.524,3.653l-2.65.442a2,2,0,0,0-1.671,1.973v.611a2,2,0,0,0,1.671,1.973l2.65.442a11.916,11.916,0,0,0,1.524,3.653l-1.476,2.066a1.981,1.981,0,0,0,.211,2.552l.428.428a1.981,1.981,0,0,0,2.552.211l2.067-1.476a11.911,11.911,0,0,0,3.653,1.524l.442,2.65a2,2,0,0,0,1.973,1.671h.612a2,2,0,0,0,1.973-1.671l.442-2.65a11.909,11.909,0,0,0,3.653-1.524l2.067,1.476a1.981,1.981,0,0,0,2.552-.211l.428-.428a1.981,1.981,0,0,0,.211-2.552l-1.476-2.066a11.912,11.912,0,0,0,1.524-3.653l2.65-.442a2,2,0,0,0,1.671-1.973v-.611A2,2,0,0,0,764.329,2000.721ZM750,2009a6,6,0,1,1,6-6A6,6,0,0,1,750,2009Z" transform="translate(-734 -1987)" fill="#fff"/>
</svg>
