<svg xmlns="http://www.w3.org/2000/svg" width="36.006" height="32.006" viewBox="0 0 36.006 32.006">
  <path id="Painting" d="M733.985,1726.991a2,2,0,0,1-2-2v-28.006a2,2,0,0,1,2-2h32.006a2,2,0,0,1,2,2v28.006a2,2,0,0,1-2,2Zm29.005-4a1,1,0,0,0,1-1v-4.212L758,1711.784l-11.206,11.206Zm-27-23v22a1,1,0,0,0,1,1h4.2l15.164-15.165a2.01,2.01,0,0,1,3.3.033l4.34,4.34v-12.214a1,1,0,0,0-1-1h-26A1,1,0,0,0,735.986,1699.986Zm4,7a4,4,0,1,1,4,4A4,4,0,0,1,739.99,1706.99Z" transform="translate(-731.985 -1694.985)" fill="#fff"/>
</svg>
