<svg xmlns="http://www.w3.org/2000/svg" width="32" height="32" viewBox="0 0 32 32">
  <path id="Stalking_You" data-name="Stalking You" d="M374.2,1707h-.279A8,8,0,1,0,359,1703a7.99,7.99,0,0,0-6.921,12H351.8a7.836,7.836,0,0,0-4.8,6.926V1725a2.587,2.587,0,0,0,1.937,2H369.25c.83,0,1.75-1.3,1.75-2v-3.074a6.9,6.9,0,0,0-.68-2.926h6.93c.83,0,1.75-1.3,1.75-2v-3.074A7.835,7.835,0,0,0,374.2,1707Zm-7.2-8a4,4,0,0,1,0,8,3.951,3.951,0,0,1-1.2-.205,8.025,8.025,0,0,0-2.591-2.591A3.951,3.951,0,0,1,363,1703,4,4,0,0,1,367,1699Zm-8,8a4,4,0,1,1-3.932,4.677A3.552,3.552,0,0,1,355,1711,4,4,0,0,1,359,1707Zm8,16H351v-1.074a3.713,3.713,0,0,1,1.8-2.926H365.2a3.713,3.713,0,0,1,1.8,2.926Zm8-8h-9.079a7.952,7.952,0,0,0,1.079-4h6.2a3.712,3.712,0,0,1,1.8,2.926Z" transform="translate(-347 -1695)" fill="#fff"/>
</svg>
